<mxfile host="app.diagrams.net" agent="Mozilla/5.0 (Windows NT 10.0; Win64; x64) AppleWebKit/537.36 (KHTML, like Gecko) Chrome/130.0.0.0 Safari/537.36 Edg/130.0.0.0" version="24.8.6">
  <diagram id="C5RBs43oDa-KdzZeNtuy" name="Page-1">
    <mxGraphModel dx="872" dy="443" grid="1" gridSize="10" guides="1" tooltips="1" connect="1" arrows="1" fold="1" page="1" pageScale="1" pageWidth="827" pageHeight="1169" math="0" shadow="0">
      <root>
        <mxCell id="WIyWlLk6GJQsqaUBKTNV-0" />
        <mxCell id="WIyWlLk6GJQsqaUBKTNV-1" parent="WIyWlLk6GJQsqaUBKTNV-0" />
        <mxCell id="mgUAQh21zNMXK-1_d5we-4" value="" style="edgeStyle=orthogonalEdgeStyle;rounded=0;orthogonalLoop=1;jettySize=auto;html=1;" edge="1" parent="WIyWlLk6GJQsqaUBKTNV-1" source="mgUAQh21zNMXK-1_d5we-0" target="mgUAQh21zNMXK-1_d5we-1">
          <mxGeometry relative="1" as="geometry" />
        </mxCell>
        <mxCell id="mgUAQh21zNMXK-1_d5we-0" value="Inicio" style="ellipse;whiteSpace=wrap;html=1;aspect=fixed;" vertex="1" parent="WIyWlLk6GJQsqaUBKTNV-1">
          <mxGeometry x="334" y="300" width="80" height="80" as="geometry" />
        </mxCell>
        <mxCell id="mgUAQh21zNMXK-1_d5we-5" value="" style="edgeStyle=orthogonalEdgeStyle;rounded=0;orthogonalLoop=1;jettySize=auto;html=1;" edge="1" parent="WIyWlLk6GJQsqaUBKTNV-1" source="mgUAQh21zNMXK-1_d5we-1" target="mgUAQh21zNMXK-1_d5we-2">
          <mxGeometry relative="1" as="geometry" />
        </mxCell>
        <mxCell id="mgUAQh21zNMXK-1_d5we-8" style="edgeStyle=orthogonalEdgeStyle;rounded=0;orthogonalLoop=1;jettySize=auto;html=1;entryX=0.5;entryY=0;entryDx=0;entryDy=0;" edge="1" parent="WIyWlLk6GJQsqaUBKTNV-1" source="mgUAQh21zNMXK-1_d5we-1" target="mgUAQh21zNMXK-1_d5we-7">
          <mxGeometry relative="1" as="geometry" />
        </mxCell>
        <mxCell id="mgUAQh21zNMXK-1_d5we-1" value="&#xa;Mostrar mensaje: &quot;Por favor, ingrese el radio del círculo: &quot;&#xa;&#xa;" style="shape=parallelogram;perimeter=parallelogramPerimeter;whiteSpace=wrap;html=1;fixedSize=1;fillColor=#ffe6cc;strokeColor=#d79b00;" vertex="1" parent="WIyWlLk6GJQsqaUBKTNV-1">
          <mxGeometry x="278" y="400" width="192" height="60" as="geometry" />
        </mxCell>
        <mxCell id="mgUAQh21zNMXK-1_d5we-6" value="" style="edgeStyle=orthogonalEdgeStyle;rounded=0;orthogonalLoop=1;jettySize=auto;html=1;" edge="1" parent="WIyWlLk6GJQsqaUBKTNV-1" source="mgUAQh21zNMXK-1_d5we-2" target="mgUAQh21zNMXK-1_d5we-3">
          <mxGeometry relative="1" as="geometry" />
        </mxCell>
        <mxCell id="mgUAQh21zNMXK-1_d5we-2" value="&lt;font style=&quot;font-size: 11px;&quot;&gt;Mostrar mensaje: &quot;El área del círculo con radio&quot;, radio, &quot;es:&quot;, area&lt;/font&gt;" style="shape=parallelogram;perimeter=parallelogramPerimeter;whiteSpace=wrap;html=1;fixedSize=1;fillColor=#ffe6cc;strokeColor=#d79b00;" vertex="1" parent="WIyWlLk6GJQsqaUBKTNV-1">
          <mxGeometry x="258" y="555" width="232" height="60" as="geometry" />
        </mxCell>
        <mxCell id="mgUAQh21zNMXK-1_d5we-3" value="Fin" style="ellipse;whiteSpace=wrap;html=1;aspect=fixed;" vertex="1" parent="WIyWlLk6GJQsqaUBKTNV-1">
          <mxGeometry x="334" y="630" width="80" height="80" as="geometry" />
        </mxCell>
        <mxCell id="mgUAQh21zNMXK-1_d5we-7" value="Definir y asignar a la variable area el resultado de π * radio^2" style="rounded=0;whiteSpace=wrap;html=1;fillColor=#dae8fc;strokeColor=#6c8ebf;" vertex="1" parent="WIyWlLk6GJQsqaUBKTNV-1">
          <mxGeometry x="320" y="480" width="120" height="60" as="geometry" />
        </mxCell>
      </root>
    </mxGraphModel>
  </diagram>
</mxfile>
